<!DOCTYPE svg PUBLIC "-//W3C//DTD SVG 1.1//EN" "http://www.w3.org/Graphics/SVG/1.1/DTD/svg11.dtd">
<!-- Uploaded to: SVG Repo, www.svgrepo.com, Transformed by: SVG Repo Mixer Tools -->
<svg version="1.1" id="Layer_1" xmlns="http://www.w3.org/2000/svg" xmlns:xlink="http://www.w3.org/1999/xlink" viewBox="0 0 512 512" xml:space="preserve" width="800px" height="800px" fill="#000000">
<g id="SVGRepo_bgCarrier" stroke-width="0"/>
<g id="SVGRepo_tracerCarrier" stroke-linecap="round" stroke-linejoin="round"/>
<g id="SVGRepo_iconCarrier"> <rect x="56.522" y="78.996" style="fill:#CFDCE5;" width="400.169" height="318.852"/> <rect x="56.522" y="78.996" style="fill:#BAC6CC;" width="400.169" height="36.647"/> <g> <rect x="26.638" y="8.704" style="fill:#FCD577;" width="459.936" height="70.292"/> <polygon style="fill:#FCD577;" points="225.218,397.852 212.835,430.346 185.052,503.296 114.76,503.296 142.543,430.346 154.925,397.852 "/> <polygon style="fill:#FCD577;" points="398.46,503.296 328.156,503.296 300.373,430.346 287.99,397.852 358.283,397.852 370.665,430.346 "/> </g> <g> <polygon style="fill:#EAC36E;" points="154.925,397.852 225.218,397.852 212.835,430.346 142.543,430.346 "/> <polygon style="fill:#EAC36E;" points="370.665,430.346 300.373,430.346 287.99,397.852 358.283,397.852 "/> </g> <path d="M485.966,0H98.778c-4.807,0-8.704,3.897-8.704,8.704s3.897,8.704,8.704,8.704h378.484v52.889H34.738V17.408h29.225 c4.807,0,8.704-3.897,8.704-8.704S68.77,0,63.963,0H26.034c-4.807,0-8.704,3.897-8.704,8.704v70.297 c0,4.807,3.897,8.704,8.704,8.704h21.179V397.85c0,4.807,3.897,8.704,8.704,8.704h85.773l-35.674,93.643 c-1.019,2.675-0.657,5.681,0.967,8.038c1.624,2.357,4.303,3.765,7.166,3.765h70.297c3.612,0,6.848-2.23,8.134-5.606l27.783-72.95 c1.711-4.492-0.544-9.521-5.035-11.232c-4.496-1.714-9.521,0.543-11.231,5.035l-25.649,67.344h-51.669l33.538-88.038h121.066 l38.035,99.84c1.286,3.375,4.523,5.605,8.134,5.605h70.297c2.863,0,5.543-1.408,7.167-3.765c1.624-2.357,1.986-5.363,0.967-8.038 l-35.674-93.643h85.775c4.807,0,8.704-3.897,8.704-8.704v-75.595c0-4.807-3.897-8.704-8.704-8.704s-8.704,3.897-8.704,8.704v66.891 H64.621V87.705h382.758v205.538c0,4.807,3.897,8.704,8.704,8.704s8.704-3.897,8.704-8.704V87.705h21.179 c4.807,0,8.704-3.897,8.704-8.704V8.704C494.67,3.897,490.773,0,485.966,0z M351.683,406.554l33.538,88.038h-51.67l-33.538-88.038 H351.683z"/> <path d="M133.221,106.944c-4.807,0-8.704,3.897-8.704,8.704v245.556c0,4.807,3.897,8.704,8.704,8.704h245.556 c4.807,0,8.704-3.897,8.704-8.704V115.648c0-4.807-3.897-8.704-8.704-8.704H133.221z M221.594,352.5v-22.978 c0-4.807-3.897-8.704-8.704-8.704s-8.704,3.897-8.704,8.704V352.5h-62.261V124.352h62.261v166.101c0,4.807,3.897,8.704,8.704,8.704 s8.704-3.897,8.704-8.704v-32.535h93.309c4.807,0,8.704-3.897,8.704-8.704s-3.897-8.704-8.704-8.704h-93.309V124.352h148.48V240.51 h-18.272c-4.807,0-8.704,3.897-8.704,8.704s3.897,8.704,8.704,8.704h18.272V352.5L221.594,352.5L221.594,352.5z"/> </g>
</svg>